<svg width="32" height="32" viewBox="0 0 32 32" fill="none" xmlns="http://www.w3.org/2000/svg">
<rect width="32" height="32" fill="#705647"/>
<path d="M3.20043 8.87465H7.44194V9.89972H2V2.10028H7.32762V3.12535H3.20043V5.43176H6.75599V6.38997H3.20043V8.87465Z" fill="#FEFEFE"/>
<path d="M14.3761 2.10028V9.89972H13.0614L9.19712 3.99443H9.16283V9.89972H7.9624V2.10028H9.23142L13.13 8.06128H13.1643V2.10028H14.3761Z" fill="#FEFEFE"/>
<path d="M22 5.81059V6.28969C22 8.71866 20.9368 10 18.6617 10C16.5123 10 15.0261 8.64067 15.0261 6C15.0261 3.35933 16.5123 2 18.6045 2C20.1479 2 21.3598 2.74652 21.6799 4.09471H20.468C20.1593 3.42618 19.6106 3.02507 18.6274 3.02507C17.2097 3.02507 16.2837 4.05014 16.2837 6C16.2837 7.92758 17.1983 8.97493 18.6617 8.97493C20.0679 8.97493 20.8453 8.28412 20.9025 6.74652H18.9703V5.81059H22Z" fill="#FEFEFE"/>
<path d="M5.73723 15.532C7.35363 15.844 8.1905 16.4123 8.1905 17.727C8.1905 19.1532 6.94093 20 5.10671 20C3.19224 20 2.1261 19.0306 2 17.5376H3.24956C3.38713 18.3287 3.86861 19.0084 5.11818 19.0084C6.29896 19.0084 6.92947 18.4513 6.92947 17.727C6.92947 16.9359 6.36774 16.6351 5.51941 16.468L4.39595 16.2563C3.05468 16 2.17196 15.4206 2.17196 14.1504C2.17196 12.9136 3.20371 12 5.015 12C6.75751 12 7.81219 12.8134 7.97268 14.1727H6.72312C6.60848 13.4819 6.09261 12.9805 5.015 12.9805C3.86861 12.9805 3.41006 13.6156 3.41006 14.1838C3.41006 14.7298 3.74251 15.1421 4.6023 15.3092L5.73723 15.532Z" fill="#FEFEFE"/>
<path d="M11.8256 12.1003C13.7974 12.1003 14.7604 13.1031 14.7604 14.6852C14.7604 16.2451 13.7974 17.2479 11.8256 17.2479H10.0373V19.8997H8.83355V12.1003H11.8256ZM11.8256 16.2228C12.9147 16.2228 13.4764 15.6657 13.4764 14.6852C13.4764 13.6936 12.9147 13.1253 11.8256 13.1253H10.0373V16.2228H11.8256Z" fill="#FEFEFE"/>
<path d="M20.6358 19.8997L17.6781 16.4903L16.4973 17.7716V19.8997H15.2936V12.1003H16.4973V16.1894L20.2919 12.1003H21.6905L18.4233 15.6657L22 19.8997H20.6358Z" fill="#FEFEFE"/>
<path d="M5.77643 28.9749C6.87939 28.9749 7.49081 28.5292 7.80251 27.7493H9.07331C8.79757 29.2201 7.43087 30 5.75245 30C3.57052 30 2 28.6407 2 26C2 23.3593 3.57052 22 5.75245 22C7.41888 22 8.7736 22.7799 9.04934 24.2396H7.77854C7.46683 23.4708 6.8674 23.0251 5.77643 23.0251C4.28984 23.0251 3.31875 24.0501 3.31875 26C3.31875 27.9387 4.28984 28.9749 5.77643 28.9749Z" fill="#FEFEFE"/>
<path d="M10.8852 28.8747H15.0333V29.8997H9.62638V22.1003H10.8852V28.8747Z" fill="#FEFEFE"/>
<path d="M20.2616 25.6212C21.3646 25.8997 22 26.6685 22 27.649C22 29.0418 21.0169 29.8997 18.9069 29.8997H15.5861V22.1003H18.835C20.6333 22.1003 21.4605 22.9025 21.4605 24.0501C21.4605 24.7855 21.0169 25.376 20.2616 25.6212ZM16.8449 23.0808V25.2758H18.871C19.6862 25.2758 20.1418 24.7967 20.1418 24.1281C20.1418 23.5042 19.7102 23.0808 18.859 23.0808H16.8449ZM18.8949 28.9081C20.1657 28.9081 20.6453 28.351 20.6453 27.6045C20.6453 26.8468 20.1418 26.2006 18.8829 26.2006H16.8449V28.9081H18.8949Z" fill="#FEFEFE"/>
</svg>
