<svg width="60" height="60" viewBox="0 0 60 60" fill="none" xmlns="http://www.w3.org/2000/svg">
<path fill-rule="evenodd" clip-rule="evenodd" d="M14.4703 35.05C14.5777 35.0858 14.6882 35.1117 14.8003 35.1275C15.5076 36.7941 16.2109 38.4625 16.9103 40.1325C18.1678 43.1375 19.4353 46.2325 19.7128 47.1225C20.0603 48.2175 20.4253 48.9625 20.8253 49.4725C21.0328 49.7325 21.2703 49.9625 21.5503 50.1375C21.6962 50.2287 21.8522 50.3026 22.0153 50.3575C22.8153 50.6575 23.5453 50.5325 24.0028 50.38C24.2713 50.2883 24.5267 50.1623 24.7628 50.005L24.7753 50L31.8403 45.595L40.0028 51.85C40.1228 51.9425 40.2528 52.02 40.3928 52.0825C41.3728 52.5075 42.3228 52.6575 43.2178 52.5375C44.1078 52.4125 44.8153 52.04 45.3428 51.6175C45.9485 51.1293 46.4314 50.5059 46.7528 49.7975L46.7753 49.7425L46.7828 49.7225L46.7878 49.7125V49.7075L46.7903 49.705C46.8338 49.5974 46.8672 49.4861 46.8903 49.3725L54.3403 11.81C54.3638 11.6897 54.3756 11.5675 54.3753 11.445C54.3753 10.345 53.9603 9.29747 52.9878 8.66497C52.1528 8.12247 51.2253 8.09747 50.6378 8.14247C50.0078 8.19247 49.4228 8.34747 49.0303 8.47247C48.8106 8.5421 48.5937 8.6205 48.3803 8.70747L48.3528 8.71997L6.5678 25.11L6.5628 25.1125C6.42142 25.1645 6.28215 25.222 6.1453 25.285C5.81395 25.4339 5.4961 25.6113 5.1953 25.815C4.6278 26.2025 3.3203 27.2675 3.5428 29.0275C3.7178 30.4275 4.6778 31.29 5.2653 31.705C5.5853 31.9325 5.8903 32.095 6.1153 32.2025C6.2153 32.2525 6.4303 32.3375 6.5228 32.3775L6.5478 32.385L14.4703 35.05ZM49.8153 12.17H49.8103C49.7888 12.1795 49.7671 12.1887 49.7453 12.1975L7.9103 28.61C7.88877 28.6187 7.86711 28.627 7.8453 28.635L7.8203 28.6425C7.74388 28.6725 7.6688 28.7059 7.5953 28.7425C7.66488 28.7823 7.73666 28.8182 7.8103 28.85L15.6653 31.495C15.8057 31.5423 15.9399 31.6061 16.0653 31.685L42.0078 16.4975L42.0328 16.485C42.1336 16.4237 42.237 16.367 42.3428 16.315C42.5228 16.2225 42.8103 16.0875 43.1353 15.9875C43.3603 15.9175 44.0278 15.72 44.7478 15.9525C45.1297 16.0728 45.4701 16.2982 45.73 16.6028C45.9899 16.9074 46.159 17.2789 46.2178 17.675C46.3109 18.0218 46.3135 18.3868 46.2253 18.735C46.0503 19.4225 45.5703 19.9575 45.1303 20.3675C44.7553 20.7175 39.8928 25.4075 35.0953 30.0375L28.5628 36.3375L27.4003 37.4625L42.0803 48.7175C42.2784 48.8006 42.4936 48.8349 42.7078 48.8175C42.8157 48.8028 42.9171 48.7577 43.0003 48.6875C43.1017 48.6019 43.1886 48.5006 43.2578 48.3875L43.2628 48.385L50.4878 11.9525C50.2602 12.0072 50.0371 12.0791 49.8203 12.1675L49.8153 12.17ZM28.6628 43.155L25.7328 40.91L25.0228 45.4225L28.6628 43.155ZM23.0453 36.455L25.9578 33.6425L32.4903 27.3375L34.9228 24.9925L18.6228 34.535L18.7103 34.74C19.7383 37.1685 20.755 39.6019 21.7603 42.04L22.4678 37.54C22.5318 37.1226 22.7354 36.7418 23.0453 36.455Z" fill="#232323"/>
</svg>
