<svg width="60" height="60" viewBox="0 0 60 60" fill="none" xmlns="http://www.w3.org/2000/svg">
<path fill-rule="evenodd" clip-rule="evenodd" d="M58.5125 42.1627C57.1525 39.4239 55.3604 36.9218 53.205 34.7527C52.4841 33.9381 51.7293 33.154 50.9425 32.4027L50.8475 32.3102C50.5554 32.0265 50.267 31.739 49.9825 31.4477C52.929 27.3505 55.4503 22.9636 57.5075 18.3552L57.59 18.1702L57.6475 17.9752C57.92 17.0677 58.23 15.3427 57.13 13.7827C55.99 12.1727 54.1675 11.8827 52.945 11.8827H47.3275C46.1513 11.8291 44.9882 12.149 44.0048 12.7965C43.0214 13.444 42.268 14.3861 41.8525 15.4877C40.6435 18.3668 39.1299 21.1083 37.3375 23.6652V17.0827C37.3375 16.2327 37.2575 14.8077 36.345 13.6077C35.255 12.1677 33.6775 11.8827 32.5825 11.8827H23.6675C22.5042 11.856 21.3751 12.2776 20.5142 13.0604C19.6532 13.8432 19.1263 14.9271 19.0425 16.0877L19.035 16.2002V16.3127C19.035 17.5252 19.515 18.4202 19.9 18.9827C20.0725 19.2352 20.255 19.4652 20.3725 19.6102L20.3975 19.6427C20.5225 19.7977 20.605 19.9002 20.6875 20.0152C20.9075 20.3102 21.22 20.7702 21.31 21.9552V25.6377C19.5204 22.641 18.0531 19.4633 16.9325 16.1577L16.9125 16.1027L16.8925 16.0502C16.5875 15.2527 16.1 14.0927 15.1225 13.2077C13.9825 12.1702 12.6325 11.8827 11.405 11.8827H5.705C4.4625 11.8827 2.965 12.1727 1.8475 13.3502C0.75 14.5102 0.625 15.9002 0.625 16.6352V16.9702L0.695 17.2952C2.27325 24.6222 5.52559 31.4845 10.1975 37.3452C12.3334 40.7135 15.2332 43.5309 18.6616 45.5689C22.09 47.607 25.9505 48.8082 29.93 49.0752L30.0325 49.0827H30.1375C31.9525 49.0827 33.845 48.9252 35.2675 47.9777C37.185 46.6977 37.3375 44.7352 37.3375 43.7552V40.9102C37.83 41.3102 38.44 41.8452 39.1875 42.5652C40.0925 43.4702 40.8125 44.2552 41.43 44.9402L41.76 45.3052C42.24 45.8402 42.7125 46.3677 43.1425 46.8002C43.6825 47.3427 44.35 47.9402 45.185 48.3827C46.0925 48.8602 47.045 49.0777 48.055 49.0777H53.7575C54.96 49.0777 56.6825 48.7927 57.895 47.3877C59.215 45.8577 59.115 43.9802 58.7 42.6327L58.625 42.3902L58.5125 42.1627ZM44.2125 42.4277C43.4377 41.5616 42.6399 40.7163 41.82 39.8927L41.8125 39.8852C38.42 36.6152 36.8375 36.0477 35.7175 36.0477C35.12 36.0477 34.4625 36.1127 34.035 36.6477C33.8425 36.9029 33.7163 37.2018 33.6675 37.5177C33.6072 37.8846 33.5805 38.2561 33.5875 38.6277V43.7552C33.5875 44.3927 33.4825 44.6602 33.1875 44.8552C32.795 45.1177 31.9575 45.3302 30.16 45.3302C26.7455 45.0979 23.4349 44.0585 20.5004 42.2974C17.5659 40.5364 15.0913 38.104 13.28 35.2002L13.26 35.1677L13.235 35.1377C8.88279 29.7206 5.84961 23.3658 4.375 16.5752C4.385 16.2502 4.455 16.0527 4.57 15.9327C4.6875 15.8077 4.975 15.6327 5.705 15.6327H11.405C12.0375 15.6327 12.3675 15.7727 12.605 15.9852C12.87 16.2302 13.105 16.6427 13.385 17.3777C14.785 21.4927 16.675 25.3427 18.4675 28.1702C19.3625 29.5852 20.2425 30.7627 21.0375 31.5952C21.435 32.0102 21.8225 32.3552 22.195 32.6002C22.5525 32.8352 22.96 33.0227 23.38 33.0227C23.6 33.0227 23.8575 32.9977 24.105 32.8902C24.3723 32.7722 24.5923 32.568 24.73 32.3102C24.9875 31.8402 25.06 31.1477 25.06 30.2402V21.8077C24.9275 19.7627 24.31 18.6102 23.71 17.7927C23.5885 17.6292 23.4635 17.4684 23.335 17.3102L23.3025 17.2702C23.1959 17.1408 23.0942 17.0073 22.9975 16.8702C22.8744 16.7174 22.8004 16.5309 22.785 16.3352C22.8046 16.1366 22.8994 15.9529 23.05 15.8219C23.2006 15.6908 23.3955 15.6223 23.595 15.6302H32.5825C33.0975 15.6302 33.27 15.7552 33.3575 15.8727C33.4825 16.0352 33.5875 16.3727 33.5875 17.0827V28.4027C33.5875 29.7477 34.2075 30.6577 35.1075 30.6577C36.1425 30.6577 36.89 30.0302 38.195 28.7252L38.2175 28.7002L38.2375 28.6777C41.1649 25.1084 43.5567 21.1317 45.3375 16.8727L45.3475 16.8427C45.4813 16.4665 45.7346 16.1443 46.0686 15.9254C46.4026 15.7064 46.7991 15.6028 47.1975 15.6302H52.9475C53.7275 15.6302 53.9825 15.8302 54.0675 15.9477C54.155 16.0727 54.2175 16.3402 54.0675 16.8652C52.014 21.4561 49.4754 25.8142 46.495 29.8652L46.475 29.8952C46.1875 30.3377 45.87 30.8277 45.825 31.3877C45.775 31.9927 46.035 32.5402 46.4925 33.1302C46.825 33.6202 47.5125 34.2927 48.21 34.9752L48.275 35.0402C49.005 35.7552 49.7975 36.5302 50.4325 37.2802L50.45 37.2977L50.4675 37.3177C52.361 39.2064 53.9356 41.3898 55.13 43.7827C55.32 44.4327 55.205 44.7677 55.055 44.9402C54.8825 45.1402 54.495 45.3277 53.76 45.3277H48.055C47.6662 45.3372 47.2814 45.2468 46.9375 45.0652C46.516 44.8201 46.1334 44.5134 45.8025 44.1552C45.445 43.7977 45.0575 43.3652 44.5825 42.8377L44.215 42.4277H44.2125Z" fill="#232323"/>
</svg>
